<?xml version="1.0" encoding="UTF-8" standalone="no"?>
<svg
   width="791.04602"
   height="1080"
   viewBox="0 0 791.04599 1080"
   version="1.1"
   id="svg5"
   sodipodi:docname="United States Soccer Federation logo.svg"
   inkscape:version="1.4.2 (f4327f4, 2025-05-13)"
   xmlns:inkscape="http://www.inkscape.org/namespaces/inkscape"
   xmlns:sodipodi="http://sodipodi.sourceforge.net/DTD/sodipodi-0.dtd"
   xmlns="http://www.w3.org/2000/svg"
   xmlns:svg="http://www.w3.org/2000/svg">
  <defs
     id="defs5" />
  <sodipodi:namedview
     id="namedview5"
     pagecolor="#ffffff"
     bordercolor="#000000"
     borderopacity="0.25"
     inkscape:showpageshadow="2"
     inkscape:pageopacity="0.0"
     inkscape:pagecheckerboard="0"
     inkscape:deskcolor="#d1d1d1"
     inkscape:zoom="0.35664698"
     inkscape:cx="541.15136"
     inkscape:cy="623.8662"
     inkscape:window-width="1920"
     inkscape:window-height="1009"
     inkscape:window-x="-8"
     inkscape:window-y="-8"
     inkscape:window-maximized="1"
     inkscape:current-layer="svg5" />
  <path
     id="outline"
     style="fill:#1f2742;stroke-width:0.999999"
     d="m 0,0 v 681.318 c 0,72.522 35.208,140.94 94.176,183.168 L 395.604,1080 696.924,864.432 c 58.968,-42.174 94.122,-110.646 94.122,-183.114 V 0 Z" />
  <path
     id="fill"
     style="fill:#ffffff;stroke-width:0.999999"
     d="m 19.494,19.494 v 661.824 c 0,66.258 32.184,128.79 86.022,167.292 l 290.088,207.468 289.98,-207.468 c 53.838,-38.502 85.968,-101.034 85.968,-167.292 V 19.494 Z" />
  <g
     id="stripes"
     style="fill:#bb2533;stroke-width:0.185185"
     transform="scale(5.4)">
    <path
       d="m 22.12,147.24 3.57,2.62 c -1.81,-2.45 -2.98,-5.38 -3.35,-8.47 -0.09,-0.72 -0.13,-1.44 -0.13,-2.17 V 72.69 l -9.23,-4.26 -0.02,59.75 c 0,7.63 3.14,14.64 9.16,19.06"
       id="path1"
       style="stroke-width:0.185185" />
    <polygon
       points="40.76,160.36 40.76,81.23 31.51,76.97 31.51,153.68 "
       id="polygon1"
       style="stroke-width:0.185185" />
    <polygon
       points="50.07,85.52 50.07,167.07 59.32,173.75 59.32,89.78 "
       id="polygon2"
       style="stroke-width:0.185185" />
    <polygon
       points="73.23,96.19 68.62,94.07 68.62,180.47 73.33,183.87 77.87,180.59 77.87,94.07 "
       id="polygon3"
       style="stroke-width:0.185185" />
    <polygon
       points="96.42,167.19 96.42,85.56 87.17,89.8 87.17,173.87 "
       id="polygon4"
       style="stroke-width:0.185185" />
    <polygon
       points="114.97,153.79 114.97,77.06 105.73,81.3 105.73,160.47 "
       id="polygon5"
       style="stroke-width:0.185185" />
    <path
       d="m 124.29,72.68 v 66.52 c 0,0.73 -0.05,1.45 -0.13,2.17 -0.37,3.1 -1.54,6.02 -3.35,8.48 l 3.57,-2.62 c 6.02,-4.43 9.16,-11.43 9.16,-19.07 l -0.02,-59.75 z"
       id="path5"
       style="stroke-width:0.185185" />
  </g>
  <g
     id="usa"
     style="fill:#1f2742;stroke-width:0.185185"
     transform="scale(5.4)">
    <path
       id="a"
       d="m 111.63,66.58 -10.96,5 V 18.05 c 0,-2.63 2.13,-4.76 4.76,-4.76 h 28.1 v 38.66 c 0,2.78 -1.62,5.3 -4.15,6.46 l -6.8,3.12 v -12.1 l -8.98,4.13 c -1.2,0.55 -1.97,1.75 -1.97,3.07 z m 0,-24.15 10.94,-5.03 V 23.7 h -10.94 z"
       style="stroke-width:0.185185" />
    <path
       id="s"
       d="M 60.93,78.43 C 58.42,77.28 56.82,74.77 56.82,72.01 V 56 l 10.96,5.08 v 9.28 l 5.46,2.52 5.46,-2.52 V 54.68 L 61.08,46.57 c -2.59,-1.19 -4.26,-3.78 -4.26,-6.64 v -22 c 0,-2.56 2.07,-4.63 4.63,-4.63 h 23.58 c 2.56,0 4.63,2.08 4.63,4.63 V 36.76 L 78.7,31.68 V 23.7 H 67.77 v 13.65 l 17.62,8.09 c 2.6,1.19 4.26,3.78 4.26,6.64 v 19.93 c 0,2.76 -1.61,5.27 -4.12,6.43 l -12.3,5.65 -12.3,-5.66"
       style="stroke-width:0.185185" />
    <path
       id="u"
       d="M 17.22,58.36 45.8,71.51 V 13.29 H 34.85 V 54.46 L 25.76,50.28 C 24.64,49.77 23.93,48.65 23.93,47.42 V 13.29 H 12.97 v 38.42 c 0,2.86 1.66,5.45 4.25,6.65"
       style="stroke-width:0.185185" />
  </g>
</svg>
